<?xml version="1.0" encoding="utf-8"?>
<!-- Generator: Adobe Illustrator 23.0.0, SVG Export Plug-In . SVG Version: 6.00 Build 0)  -->
<svg version="1.1" id="Capa_1" xmlns="http://www.w3.org/2000/svg" xmlns:xlink="http://www.w3.org/1999/xlink" x="0px" y="0px"
	 viewBox="0 0 725.4 404" style="enable-background:new 0 0 725.4 404;" xml:space="preserve">
<style type="text/css">
	.st0{font-family:'DancingScript-Bold';}
	.st1{font-size:130px;}
</style>
<g transform="translate(0.000000,1280.000000) scale(0.100000,-0.100000)">
	<path d="M1654.7,12448.1c-3.7-2.4-5.9-6.9-5.9-11.5c0-14.6,1.9-14.9,87.6-15.4c43.4,0,94.3-1.6,113.2-3.2c21.8-1.6,36.2-1.6,39.2,0
		c9.6,5.1,9.6,21,0,26.4c-8.3,4.3-78.6,8-154.8,8C1672,12452.3,1659.8,12451.8,1654.7,12448.1z"/>
	<path d="M1427.8,12425.4c-104.4-21.8-198.7-46.9-204.3-54.9c-4.8-6.4-4.3-15.2,1.3-20.2c6.7-6.1,9.6-5.9,45.3,4.5
		c44.5,13.1,79.9,21.8,136.4,33.6c50.1,10.4,55.9,13.1,55.9,24.5c0,6.7-9.6,15.4-16.5,15.2
		C1442.4,12427.8,1434.4,12426.8,1427.8,12425.4z"/>
	<path d="M2087.3,12409.5c-3.7-2.9-6.9-7.7-6.9-10.7c0-9.6,9.3-14.9,36.2-21c37.6-8.5,93.8-24.5,145.7-41.6
		c42.6-14.1,45-14.7,51.4-10.7c8.5,5.9,8.8,18.4,0.5,24.2c-13.3,9.3-140.9,47.4-212.8,63.7
		C2096.6,12414.5,2092.1,12413.2,2087.3,12409.5z"/>
	<path d="M977.4,12273.1c-49.5-25.3-82.8-43.9-125.5-70.3c-24.5-15.2-29.3-21.8-23.7-32.5c6.7-12.3,13.6-10.4,61.5,18.4
		c25,14.9,70.3,40,100.7,55.7c52.7,26.9,55.1,28.5,55.9,36.5c1.1,9.9-5.1,17-14.1,17C1029,12297.9,1004.3,12286.7,977.4,12273.1z"/>
	<path d="M2494.8,12261.6c-5.6-5.6-5.3-17.8,0.5-22.9c2.4-2.1,16.5-10.4,31.2-18.1c34.6-18.4,93.5-54.3,130-79.1
		c16-10.7,31.7-19.4,35.4-19.4c8,0,15.4,10.9,13.3,19.4c-3.2,12.8-183.5,124.4-200.8,124.4
		C2501.5,12265.9,2496.9,12264,2494.8,12261.6z"/>
	<path d="M1622.2,12077.6c-120.7-12.5-241.3-61-329-131.6c-41.6-33.6-85.5-81.8-111.6-122.8c-5.3-8.5-10.7-15.4-11.7-15.4
		c-1.3,0-12.8,3.7-26.1,8c-32.8,11.2-69.8,20.5-103.9,25.8c-35.7,5.6-126.8,6.4-162.2,1.3c-106.8-15.2-210.2-61.5-285.3-127.9
		c-47.4-41.8-90.8-101.7-113.5-157.2c-45.3-111.3-37.6-232.8,22.1-337.7c54.9-96.4,150.5-172.6,267.7-213.6l29-10.1l1.3-66.6
		c0.8-43.1,2.4-66.1,4-65.8c2.4,0.3,161.7,91.9,848.1,487.4l147.3,85l5.9,18.4c47.1,147.6,253,289.3,443,304.7
		c55.4,4.5,102.8-2.7,140.9-21c50.1-24.2,75.9-63.7,76.2-115.9c0.3-30.4-5.6-54.3-20.2-85.5c-58.3-123.3-211.8-232-376.4-266.6
		c-29.3-6.1-40.8-7.2-80.7-7.2c-29.6-0.3-52.2,1.1-61.8,3.2l-15.2,3.5l-264.5-152.4c-145.4-83.9-394.5-227.2-553.5-318.8
		c-159-91.4-289.8-167.8-290.9-169.4c-3.2-4.8-2.7-736.2,0.5-738.1c2.9-1.9,1015.4,579.6,1016.7,583.9c0.5,1.3-5.1,10.1-12.5,19.4
		c-17,21.3-17.3,28-2.4,50.3c46.6,69.8,264.8,202.7,395.5,241.3c25.3,7.5,66.3,11.5,72.7,6.9c3.2-2.1,3.2-3.2,0.5-6.7
		c-2.1-2.4-4.8-4.3-6.1-4.3c-1.3,0-19.4-8.3-40.2-18.1c-110.8-53.3-279.9-155.8-323.4-196.3l-17.3-16l12.3-15.4
		c7.2-8.8,14.6-15.2,17.6-15.2c33.6,0,268.2,126,370.2,199c15.2,10.9,30.6,21,34.1,22.4c9.6,3.7,41.6,2.9,47.1-1.3
		c6.4-4.5,4.3-18.4-5.6-34.9c-6.1-10.7-9.9-13.6-26.1-20.5c-76.7-33.6-235.7-124.1-313.8-178.7c-29.6-20.8-58.1-44.7-58.1-49.3
		s24.8-29.8,29.3-29.8c36.2,0,305.2,146.8,387.3,211.2c17.3,13.6,58.1,14.9,68.5,2.1c5.6-6.9,4-15.2-6.7-32.5
		c-8-13.1-9.6-14.1-46.9-31.4c-129.7-59.7-348.9-196.6-348.9-217.9c0-5.3,21.3-30.1,25.8-30.1c9.3,0,48.5,15.4,90,35.7
		c94.8,45.8,221.3,120.1,297.3,174.5c19.4,13.9,24,6.4,10.7-17.3c-21.8-37.8-99.6-98.6-202.2-157.4c-106.8-61.5-203-99.4-251.7-99.4
		h-19.2l-16,17l-16,17l-520.7-299.4c-286.3-164.9-521.8-300.7-523.1-302c-4.5-4.5,71.1-33.8,133.2-51.7
		c124.7-35.4,264-57.5,448.5-71.1c61.3-4.5,286.3-6.1,357.2-2.7c277,13.6,503.9,57.5,640.3,123.9c59.7,29,93,55.7,110,88.2l7.2,13.3
		l1.3,567.3l1.3,567.1l6.7,3.5c3.7,1.9,20.2,8.5,37,15.2c114,45,214.4,139.3,272.7,256c106,212.6,68.7,470.7-92.7,640.1
		c-122.3,128.4-295.7,185.1-466.7,152.1c-73.2-14.1-150-48.2-209.1-93.2c-11.5-8.8-21.3-15.7-22.4-15.7s-13.3,10.9-27.2,24.5
		c-93.2,89-221.6,147-358,161.7C1736.2,12079.2,1643.8,12080,1622.2,12077.6z"/>
	<path d="M640.7,12046.9c-78-69.5-145.2-138.5-145.2-149.7c0-8.5,6.7-14.9,15.2-14.9c5.6,0,16.2,9.6,50.9,45.3
		c24,24.8,59.9,59.9,79.9,77.8c20.2,17.8,37.3,33.6,38.4,35.2c3.7,5.1,2.1,14.1-2.7,18.4C668.4,12066.9,660.4,12064.3,640.7,12046.9
		z"/>
	<path d="M2849.3,12010.7c-9.6-10.7-6.4-16,35.7-57.8c34.6-34.1,59.4-61,107.6-116.4c12.8-14.9,30.6-12.3,30.6,4.5
		c0,10.7-56.7,76.2-120.4,139.3C2865.3,12017.4,2858.6,12021.1,2849.3,12010.7z"/>
	<path d="M370.6,11739.3c-8.5-3.5-68.7-103.3-100.4-166.5c-18.4-36.8-19.7-44.5-8.8-50.3c11.5-6.1,17.6-1.1,30.6,25
		c19.4,38.4,50.3,93,76.2,134c24.8,39.7,27.7,48.5,17.6,55.4C379.7,11741.4,376.7,11741.7,370.6,11739.3z"/>
	<path d="M3125,11675.6c-9.3-6.4-7.2-15.4,11.2-47.4c21.8-38.4,51.1-95.9,69.3-136.1c16.5-36.5,22.6-42.9,34.6-35.2
		c4.8,3.2,6.9,6.9,6.9,12.5c0,18.4-87.9,191.8-104.4,205.9C3135.9,11681,3132.7,11681,3125,11675.6z"/>
	<path d="M180.7,11346.7c-8.5-4.8-37.3-110-51.7-188.3c-6.4-35.4-6.4-38.6-2.7-44.7c5.9-8.5,18.6-8.8,24-0.3
		c2.1,3.2,6.4,20.2,9.6,37.8c6.7,38.6,23.4,108.4,36,151c5.1,17.3,9.3,32.5,9.3,34.1c0,4.3-10.4,13.3-15.2,13.3
		C187.4,11349.6,183.1,11348.3,180.7,11346.7z"/>
	<path d="M3293.6,11274.2l-7.2-6.1l10.9-47.4c11.2-47.7,24.8-123.9,28.2-156.1c1.1-9.6,3.5-20,5.6-23.2c4.8-7.7,17-8,23.7-0.8
		c4.3,4.8,4.5,7.2,1.3,31.2c-4.5,38.9-15.2,98.8-24.2,139.3c-12.8,56.2-14.9,62.6-22.6,66.3
		C3300.8,11281.2,3301.9,11281.4,3293.6,11274.2z"/>
	<path d="M108.5,10916c-8-8.8-5.3-121.2,4.8-205.6c2.7-22.9,4.8-31.2,8.3-33.8c6.9-5.1,15.4-4.3,21,1.9c4.5,5.1,4.5,7.2,0,51.1
		c-2.7,25.3-5.3,77-6.4,114.8c-1.6,64.2-1.9,69.3-6.7,72.7C122.4,10922.1,113.6,10921.9,108.5,10916z"/>
	<path d="M3343.9,10892.8c-5.3-3.5-5.9-7.2-7.5-52.5c-2.1-54.9-4.8-90.6-11.2-144.1c-4.3-34.9-4.3-36.8,0.3-41.8
		c5.6-6.1,14.1-6.9,20.8-1.9c2.4,1.6,5.6,9.9,7.2,17.8c8.8,49,17.8,202.4,12.8,215.7C3362.1,10897.4,3353.8,10899.8,3343.9,10892.8z
		"/>
	<path d="M162.9,10484.2c-1.6-2.9-2.9-7.5-2.9-10.4c0-16.5,62.3-189.4,75.4-208.6c6.9-10.7,16-12.8,23.7-6.1
		c7.5,6.9,5.9,13.9-14.9,63.7c-9.6,23.4-25.3,67.1-34.9,97.2c-22.1,68.7-21.6,67.7-33.8,68.7
		C167.9,10489.3,165,10488.5,162.9,10484.2z"/>
	<path d="M3281.9,10463.5c-3.7-3.2-11.5-21.8-22.6-55.4c-9.6-27.7-25.3-69.8-34.9-93.2c-29.3-70.1-28-66.1-24.5-73.5
		c3.7-7.5,16-9.9,22.4-4.5c5.3,4.3,17.6,30.9,39.4,85.8c18.1,45.8,43.9,122.3,43.9,130c0,5.6-9.1,15.4-14.4,15.4
		C3289.1,10468,3285.1,10465.9,3281.9,10463.5z"/>
	<path d="M338.6,10087.4c-1.6-2.9-2.9-7.5-2.9-10.4c0-10.7,82.6-127.9,122-173.1c12.8-14.7,15.7-16.8,22.9-16
		c8.8,0.8,15.2,9.6,13.1,17.8c-0.5,2.7-8.5,13.6-17.3,24.5c-29,35.2-56.2,72.2-86.3,116.9c-28.2,42.1-29.8,43.9-39.2,44.7
		C343.7,10092.4,340.8,10091.6,338.6,10087.4z"/>
	<path d="M3101,10071.9c-1.9-0.8-11.7-13.6-21.6-28.2c-24.5-36.8-62.6-87.4-92.7-123.9c-25.6-31.2-28.8-38.6-20-46.6
		c8-7.2,16.2-5.3,26.4,5.6c34.6,37.3,124.4,158.7,129.7,175.3C3126.3,10065,3112.2,10076.4,3101,10071.9z"/>
	<path d="M621.3,9757.9c-3.7-2.7-5.9-6.9-5.9-11.7c0-6.1,4-11.2,20.8-26.6c28.2-25.3,89.2-74,126.8-100.9
		c25.8-18.1,32.5-21.8,39.4-21c9.6,0.8,15.7,9.6,13.6,18.4c-0.8,2.7-11.2,11.7-22.9,20.2c-34.6,24-75.4,55.7-107.9,83.1
		C629.5,9766.4,631.6,9765.1,621.3,9757.9z"/>
	<path d="M2815.2,9741.4c-4-2.4-20.8-15.7-37.3-29.6c-37.3-30.9-71.9-57-110.8-83.9c-16.5-11.2-30.6-22.6-31.4-25.6
		c-3.2-10.4,9.3-23.2,19.2-19.4c22.4,8.3,179.3,129.7,183.3,141.7c2.4,8.3-0.5,14.9-8.3,18.4C2821.9,9747,2823.5,9747,2815.2,9741.4
		z"/>
	<path d="M978.7,9510.4c-4-4-6.1-8.5-5.3-10.9c0.8-2.4,1.6-5.3,1.6-6.9c0-5.6,111.6-55.7,180.3-80.7c34.1-12.3,35.4-12.5,41.8-8.3
		c8.3,5.3,9.3,17.3,2.4,23.4c-2.7,2.4-20.2,9.9-39.4,16.8c-40,14.6-92.7,37-138.2,58.3c-17.3,8.3-32.8,14.9-34.1,14.9
		S982.4,9514.2,978.7,9510.4z"/>
	<path d="M2412.2,9484.9c-26.1-11.7-68.7-29-94.6-38.6c-69-25.3-70.1-25.8-72.4-32c-2.4-7.2,2.4-17,9.9-20
		c8-2.7,66.3,17.6,142.2,49.5c55.9,23.7,77,34.9,78.8,42.4c1.6,6.7-2.7,17.6-6.9,17.6c-1.1,0-3.7,0.5-5.9,1.3
		C2461.5,9505.6,2438.3,9496.6,2412.2,9484.9z"/>
	<path d="M1387.8,9369.3c-4.5-5.3-4.3-16.8,0.3-21.3c6.4-6.1,78.6-18.9,158.2-28c71.6-8.3,83.9-6.9,83.9,9.1
		c0,11.2-7.7,14.6-38.9,17.6c-46.1,4.3-110.5,13.1-149.2,20C1400.9,9374.3,1392.4,9374.9,1387.8,9369.3z"/>
	<path d="M2020.4,9365.3c-39.2-7.2-106.3-15.7-152.4-19.4c-32.5-2.9-41.6-4.5-46.1-8.5c-6.9-6.1-6.9-13.1,0.3-20.2
		c5.3-5.3,7.5-5.6,32.8-4c51.1,3.5,112.9,10.9,168.1,20.5c24.2,4.3,33,6.7,36.8,10.9c5.3,6.4,5.9,12.8,1.3,18.6
		C2055.8,9369.8,2048.7,9370.3,2020.4,9365.3z"/>
</g>
<text transform="matrix(1 0 0 1 364.4286 155.2891)"><tspan x="0" y="0" class="st0 st1">Cocina </tspan><tspan x="0" y="156" class="st0 st1">Fácil</tspan></text>
</svg>
